<?xml version="1.0" encoding="utf-8"?>
<!DOCTYPE svg PUBLIC "-//W3C//DTD SVG 1.1//EN" "http://www.w3.org/Graphics/SVG/1.1/DTD/svg11.dtd">
<svg version="1.1" id="bike-rack-2" xmlns="http://www.w3.org/2000/svg" xmlns:xlink="http://www.w3.org/1999/xlink" x="0px" y="0px"
	 width="100px" height="100px" viewBox="0 0 100 100" enable-background="new 0 0 100 100" xml:space="preserve">
<path d="M21.93,41.018c-0.14,0-0.275,0.016-0.414,0.021c0.498-1.76,1.638-3.195,3.022-4.322c1.821-1.483,4.724-1.546,4.724-1.546
	h41.477c4.441,0,8.055,3.614,8.055,8.055v23.601h4v-23.6c0-6.647-5.407-12.055-12.055-12.055H29.262
	c-0.14,0-1.684-0.188-4.655,0.936c-3.969,1.667-6.863,5.4-7.332,9.846c-4.343,1.825-7.4,6.121-7.4,11.118v23.602h4V53.072
	c0-2.676,1.317-5.045,3.332-6.51v20.266h4V45.054c0.239-0.021,0.479-0.037,0.724-0.037h2.608l4,0.001h34.868
	c4.442,0,8.056,3.613,8.056,8.055v23.602h4V53.072c0-6.647-5.408-12.055-12.056-12.055"/>
</svg>
