<?xml version="1.0" encoding="utf-8"?>
<!DOCTYPE svg PUBLIC "-//W3C//DTD SVG 1.1//EN" "http://www.w3.org/Graphics/SVG/1.1/DTD/svg11.dtd">
<svg version="1.1" id="bike-rack-1" xmlns="http://www.w3.org/2000/svg" xmlns:xlink="http://www.w3.org/1999/xlink" x="0px" y="0px"
	 width="100px" height="100px" viewBox="0 0 100 100" enable-background="new 0 0 100 100" xml:space="preserve">
<path d="M21.93,41.018c-0.14,0-0.275,0.016-0.414,0.021c-1.36,0.086-2.297,0.133-4.241,0.915c-4.343,1.825-7.4,6.121-7.4,11.118
	v23.602h4V53.072c0-2.676,1.316-5.046,3.332-6.51c2.043-1.484,4-1.508,4-1.508c0.239-0.021,0.479-0.037,0.724-0.037h2.608l4,0.001
	h34.868c4.442,0,8.056,3.613,8.056,8.055v23.602h4V53.072c0-6.647-5.408-12.055-12.056-12.055"/>
</svg>
