<?xml version="1.0" encoding="utf-8"?>
<!-- Generator: Adobe Illustrator 17.0.0, SVG Export Plug-In . SVG Version: 6.00 Build 0)  -->
<!DOCTYPE svg PUBLIC "-//W3C//DTD SVG 1.1//EN" "http://www.w3.org/Graphics/SVG/1.1/DTD/svg11.dtd">
<svg version="1.1" id="Calque_1" xmlns="http://www.w3.org/2000/svg" xmlns:xlink="http://www.w3.org/1999/xlink" x="0px" y="0px"
	 width="100px" height="58.818px" viewBox="-0.925 20.564 100 58.818" enable-background="new -0.925 20.564 100 58.818"
	 xml:space="preserve">
<path d="M79.705,40.645c-3.579,0-6.919,0.988-9.796,2.68l-4.246-6.149l3.949-11.311l2.499-0.739
	c0.752-0.224,1.183-1.016,0.961-1.767c-0.043-0.146-0.124-0.268-0.206-0.387c2.104-0.992,4.159-1.848,4.174-2.408
	c-5.331,0-7.464,1.068-9.596,1.068c-1.955,0-8.53,0-8.53,1.064c0.858,0,1.702,0.06,2.516,0.156c0.046,0.201,0.168,0.381,0.366,0.48
	l0,0l2.133,1.065c0.099,0.05,0.205,0.076,0.318,0.076h2.844L63.02,36.124L29.475,34.09c0.961-3.837,1.692-6.786,1.693-6.788
	c0.001-0.007,0-0.014,0-0.021c0.001-0.008,0.008-0.016,0.01-0.024c0.02-0.091,0.001-0.178,0.002-0.267
	c0.001-0.091,0.019-0.186,0.003-0.273c-0.015-0.091-0.061-0.171-0.094-0.257s-0.052-0.174-0.101-0.25
	c-0.05-0.078-0.122-0.138-0.186-0.207c-0.061-0.065-0.111-0.137-0.184-0.19c-0.081-0.058-0.179-0.088-0.272-0.13
	c-0.074-0.033-0.136-0.082-0.216-0.102c-0.007-0.001-0.014,0-0.021,0c-0.008-0.001-0.015-0.008-0.024-0.01l-4.992-1.066
	c-0.185-0.041-0.388-0.042-0.575-0.004l-5.331,1.068c-0.048,0.009-0.085,0.041-0.132,0.055c-0.093,0.029-0.179,0.064-0.263,0.111
	c-0.08,0.044-0.152,0.091-0.22,0.148c-0.07,0.059-0.131,0.12-0.189,0.191c-0.048,0.058-0.094,0.114-0.132,0.178h-0.917
	c0,0-0.067,0.001-0.216-0.024c-0.227-0.035-0.559-0.138-0.788-0.333c-0.222-0.199-0.407-0.443-0.418-1.064
	c0-0.393-0.32-0.711-0.712-0.711s-0.709,0.318-0.709,0.711H14.49c-0.024,1.316,0.75,2.177,1.458,2.5
	c0.705,0.347,1.328,0.34,1.386,0.343h0.761c0.068,0.612,0.243,1.551,0.708,2.556c0.705,1.645,2.563,3.487,5.54,3.487
	c0.038,0,0.077,0,0.114,0c0.787,0,1.422-0.637,1.425-1.422c0-0.785-0.637-1.421-1.423-1.421c-1.945-0.05-2.546-0.846-3.079-1.849
	c-0.148-0.311-0.242-0.628-0.316-0.931l3.726-0.746l3.267,0.697c-0.662,2.657-2.135,8.561-3.443,13.683
	c-1.952-0.662-4.035-1.039-6.211-1.039C7.725,40.688-0.925,49.337-0.925,60.013c0,10.672,8.65,19.323,19.324,19.323
	c10.673,0,19.322-8.651,19.325-19.323c-0.001-7.478-4.254-13.949-10.467-17.162c0.132-0.514,0.263-1.029,0.398-1.558l22.071,17.241
	c-0.418,0.867-0.672,1.832-0.672,2.862c0,2.726,1.643,5.063,3.99,6.086l-1.209,4.056c-0.111,0.378,0.103,0.771,0.48,0.886
	c0.066,0.02,0.136,0.029,0.202,0.029c0.306,0,0.589-0.199,0.681-0.507l1.202-4.034c0.421,0.083,0.853,0.13,1.297,0.13
	c2.22,0,4.173-1.098,5.381-2.771c2.292,8.14,9.753,14.111,18.628,14.111c10.698,0,19.368-8.672,19.369-19.366
	C99.073,49.318,90.403,40.645,79.705,40.645z M36.301,60.014c-0.018,9.888-8.015,17.886-17.902,17.902
	C8.511,77.899,0.513,69.901,0.498,60.014c0.016-9.887,8.014-17.885,17.901-17.902c2.054,0.003,4.02,0.369,5.854,1.006
	c-0.469,1.824-0.902,3.493-1.252,4.799c-0.802,3.011-2.237,5.841-3.474,7.9c-0.513,0.854-0.986,1.568-1.367,2.118
	c-1.047,0.121-1.861,1-1.861,2.08c0,1.16,0.941,2.102,2.103,2.102s2.103-0.941,2.103-2.102c0-0.142-0.016-0.279-0.042-0.413
	c1.398-2.002,3.986-6.123,5.289-10.949c0.324-1.21,0.721-2.735,1.146-4.39C32.49,47.291,36.288,53.203,36.301,60.014z
	 M29.597,39.206l0.556-2.223l31.893,1.933l-5.562,15.918c-0.263-0.03-0.517-0.08-0.787-0.08c-1.607,0.001-3.064,0.597-4.215,1.548
	L29.597,39.206z M55.696,65.199c-0.162,0-0.318-0.028-0.475-0.047l1.063-3.571c0.113-0.377-0.102-0.771-0.478-0.883
	c-0.377-0.114-0.772,0.103-0.886,0.478l-1.053,3.535c-1.169-0.648-1.972-1.88-1.974-3.312c0.005-2.1,1.7-3.798,3.801-3.802
	c2.099,0.004,3.798,1.702,3.804,3.802C59.494,63.497,57.795,65.196,55.696,65.199z M60.608,56.955
	c-0.423-0.463-0.9-0.866-1.438-1.196l5.33-15.258l3.062,4.434C63.915,47.877,61.377,52.121,60.608,56.955z M61.838,58.868
	c0.335-5.141,2.788-9.697,6.539-12.758l8.38,12.134c-0.095,0.155-0.183,0.319-0.25,0.488l-14.509,0.646
	C61.942,59.21,61.904,59.032,61.838,58.868z M79.705,77.96c-8.834-0.017-16.129-6.392-17.631-14.789
	c0.086-0.312,0.146-0.629,0.188-0.958l14.379-0.64c0.57,1.118,1.721,1.894,3.063,1.894c1.907,0,3.454-1.547,3.454-3.451
	c0-1.908-1.547-3.454-3.454-3.454c-0.208,0-0.414,0.026-0.613,0.061l-8.372-12.12c2.644-1.535,5.706-2.429,8.984-2.435
	c9.912,0.017,17.93,8.034,17.947,17.948C97.634,69.928,89.617,77.943,79.705,77.96z"/>
</svg>
